# xmcd CD database file
#
# Track frame offsets:
#	150
#	20052
#	36572
#	55132
#	71862
#	92470
#	106725
#	121430
#	140405
#	155012
#	171927
#	186922
#	203242
#	221065
#	239607
#	259852
#	276907
#	296347
#
# Disc length: 4095 seconds
#
# Revision: 2
# Processed by: cddbd v1.5.2PL0 Copyright (c) Steve Scherf et al.
# Submitted via: jetAudio 7
#
DISCID=1d0ffd12
DTITLE=Various Artist - アニメ主題歌大全集〜Disc6
DYEAR=1900
DGENRE=Soundtrack
TTITLE0=【ED】愛は悲しい笑顔
TTITLE1=【OP】ドリーム・ストライカー
TTITLE2=【ED】異邦人からストラニエーロ〜
TTITLE3=【OP】ないしょ！のバイリン・キャット
TTITLE4=【ED1】おじいさんへのおてがみ
TTITLE5=【ED2】でっかいキャンパス
TTITLE6=んばば・ラブソング
TTITLE7=もしかすっとナンセンス
TTITLE8=気分はパプワ晴れ
TTITLE9=【OP】太陽を追いかけて
TTITLE10=【ED】思い出の鏡
TTITLE11=【OP】とっておきのキモチ
TTITLE12=【ED】キテーラ・ミテーラ
TTITLE13=【OP】大キライ！
TTITLE14=【ED1】二人きりで行こうよ
TTITLE15=年がらノー天気
TTITLE16=Flower Of Desert
TTITLE17=Twilight Songs
EXTD=
EXTT0=
EXTT1=
EXTT2=
EXTT3=
EXTT4=
EXTT5=
EXTT6=
EXTT7=
EXTT8=
EXTT9=
EXTT10=
EXTT11=
EXTT12=
EXTT13=
EXTT14=
EXTT15=
EXTT16=
EXTT17=
PLAYORDER=
